<svg width="20" height="15" viewBox="0 0 20 15" fill="none" xmlns="http://www.w3.org/2000/svg">
<path d="M19 -1.33514e-05H1.00004C0.817795 0.00055798 0.639161 0.0508211 0.48336 0.145365C0.32756 0.239908 0.200495 0.375152 0.115841 0.536539C0.031187 0.697927 -0.00784959 0.879347 0.0029335 1.06127C0.0137166 1.24319 0.0739103 1.41873 0.177036 1.56899L9.17704 14.569C9.55004 15.108 10.448 15.108 10.822 14.569L19.822 1.56899C19.9262 1.41904 19.9873 1.24342 19.9987 1.06119C20.01 0.878966 19.9713 0.697109 19.8865 0.535379C19.8018 0.37365 19.6744 0.238233 19.5181 0.143843C19.3618 0.0494525 19.1826 -0.000300935 19 -1.33514e-05Z" fill="white"/>
</svg>
